Coordinates
version=1
nRows=26
nColumns=24
inDegrees=yes

Units are S.I. units (second, meters, Newtons, ...)
Angles are in degrees.

endheader
time	pelvis_tilt	pelvis_list	pelvis_rotation	pelvis_tx	pelvis_ty	pelvis_tz	hip_flexion_r	hip_adduction_r	hip_rotation_r	knee_angle_r	ankle_angle_r	subtalar_angle_r	mtp_angle_r	hip_flexion_l	hip_adduction_l	hip_rotation_l	knee_angle_l	ankle_angle_l	subtalar_angle_l	mtp_angle_l	lumbar_extension	lumbar_bending	lumbar_rotation
      1.75700000	     -0.67343393	      9.55056720	     -4.21330400	      1.39235626	      1.00789449	      0.28756031	     18.62619923	    -12.25003380	      2.86663289	    -70.39390758	     -1.62466707	     -2.33006562	     11.95559561	      6.52764469	     14.69466631	      4.62747064	     -8.82527372	      2.35120461	    -16.03874431	     -1.78530584	    -10.32718905	     -6.11853320	     -1.19688416
      1.76116667	     -0.65252996	      9.35749541	     -4.01206122	      1.39682245	      1.00858897	      0.28705224	     19.07738399	    -11.98826139	      2.77316199	    -69.90581851	     -0.81500368	     -2.09101814	     11.86409906	      5.94626065	     14.53979524	      4.96325205	     -8.38262888	      2.38253677	    -16.03608957	     -1.77452823	    -10.39550353	     -5.83884471	     -1.45755495
      1.76533333	     -0.60782540	      9.18650120	     -3.81259021	      1.40127018	      1.00925718	      0.28655595	     19.50195769	    -11.75843172	      2.67482851	    -69.38318214	     -0.01353791	     -1.91023109	     11.77457053	      5.35434033	     14.40553666	      5.28590895	     -7.95572009	      2.38231252	    -16.04223903	     -1.76501842	    -10.49480107	     -5.58839339	     -1.73024524
      1.76950000	     -0.58082149	      8.99580286	     -3.59876863	      1.40562819	      1.00987510	      0.28608496	     19.92788561	    -11.49763878	      2.57170605	    -68.80790398	      0.76055743	     -1.81964170	     11.70550599	      4.80621465	     14.24085859	      5.57808374	     -7.57203920	      2.36958279	    -16.02367297	     -1.75931729	    -10.60355474	     -5.34272303	     -1.96021523
      1.77366667	     -0.53280538	      8.84224822	     -3.40422171	      1.41008811	      1.01044373	      0.28560671	     20.32966750	    -11.29500518	      2.47032875	    -68.20245798	      1.45777842	     -1.70565260	     11.60155268	      4.20435573	     14.11639747	      5.92126927	     -7.12274827	      2.35841753	    -16.06615912	     -1.75119660	    -10.69067569	     -5.10737936	     -2.29329183
      1.77783333	     -0.50512905	      8.70330649	     -3.22081590	      1.41451232	      1.01092725	      0.28515054	     20.75621045	    -11.10379898	      2.38315382	    -67.56513096	      2.10834560	     -1.67536780	     11.46195189	      3.63337428	     14.00024403	      6.24992129	     -6.67579523	      2.31946884	    -16.13857208	     -1.74193292	    -10.74772183	     -4.88150346	     -2.58930994
      1.78200000	     -0.48762243	      8.55145050	     -3.01695716	      1.41890902	      1.01136777	      0.28470040	     21.17264558	    -10.90212647	      2.27454527	    -66.87812562	      2.74103284	     -1.68511347	     11.31676186	      3.09165393	     13.86397339	      6.56086159	     -6.26826193	      2.29930823	    -16.17458884	     -1.73309432	    -10.81784890	     -4.66311851	     -2.84360893
      1.78616667	     -0.47862779	      8.38834198	     -2.79999143	      1.42326747	      1.01176194	      0.28426313	     21.58011322	    -10.68769117	      2.15427225	    -66.14507125	      3.34190816	     -1.77294532	     11.23475768	      2.59871734	     13.71075734	      6.81764439	     -5.94388537	      2.31010344	    -16.13360876	     -1.72557922	    -10.89022939	     -4.46067340	     -3.00552617
      1.79033333	     -0.42543701	      8.26325153	     -2.62827177	      1.42769266	      1.01213344	      0.28385080	     21.94607520	    -10.51965725	      2.06652539	    -65.38877219	      3.85956157	     -1.86322909	     11.06058732	      2.00656119	     13.59704799	      7.15302722	     -5.49828158	      2.27993248	    -16.22654467	     -1.71099714	    -10.97998624	     -4.23900364	     -3.35265248
      1.79450000	     -0.40797173	      8.12421273	     -2.42520950	      1.43207923	      1.01243934	      0.28344095	     22.32778263	    -10.33589176	      1.95814054	    -64.58484153	      4.36790633	     -2.02020035	     10.88659013	      1.48596556	     13.46140539	      7.45456276	     -5.11998131	      2.26427870	    -16.27225969	     -1.69278428	    -11.04581244	     -4.04117018	     -3.57508657
      1.79866667	     -0.43794968	      8.00476742	     -2.21153186	      1.43643713	      1.01260983	      0.28302675	     22.76061372	    -10.17851512	      1.84341651	    -63.76281419	      4.87351496	     -2.21681165	     10.79316139	      1.05513480	     13.34222755	      7.69874224	     -4.82311580	      2.27473253	    -16.24357081	     -1.68080108	    -11.06833800	     -3.87437645	     -3.71895448
      1.80283333	     -0.39139090	      7.90725331	     -2.03725362	      1.44083151	      1.01284474	      0.28266879	     23.09986176	    -10.04025028	      1.76483084	    -62.89714830	      5.27128864	     -2.47770079	     10.49801286	      0.48553251	     13.24343351	      8.05807445	     -4.38941929	      2.16774052	    -16.40114095	     -1.65212378	    -11.16277799	     -3.71486862	     -4.08840671
      1.80700000	     -0.38141397	      7.80978022	     -1.83293184	      1.44523583	      1.01298727	      0.28227656	     23.46026218	     -9.91695120	      1.65105237	    -61.99785824	      5.68403285	     -2.74127527	     10.08033145	     -0.02143126	     13.14127576	      8.37799782	     -4.01135881	      2.10503303	    -16.54927658	     -1.60253079	    -11.18859145	     -3.55508901	     -4.34818703
      1.81116667	     -0.35818767	      7.69827344	     -1.64753388	      1.44962543	      1.01312252	      0.28194444	     23.79091212	     -9.76564547	      1.55989624	    -61.05070398	      6.02356411	     -3.07322730	      9.67935619	     -0.52385785	     13.01753716	      8.65143390	     -3.67083590	      2.10145966	    -16.58170514	     -1.54920857	    -11.25918951	     -3.39404652	     -4.55624650
      1.81533333	     -0.39691619	      7.60012637	     -1.45398832	      1.45399152	      1.01312271	      0.28161984	     24.18476869	     -9.62554545	      1.48349641	    -60.07822976	      6.30620255	     -3.40686429	      9.50464320	     -0.94166406	     12.90261334	      8.92877218	     -3.36589914	      2.16428799	    -16.56441324	     -1.52180413	    -11.26933843	     -3.24639409	     -4.71078142
      1.81950000	     -0.38932376	      7.52352852	     -1.28330745	      1.45841211	      1.01313140	      0.28131743	     24.51806211	     -9.51396113	      1.41351584	    -59.07760913	      6.56558549	     -3.80026257	      9.32043323	     -1.42205044	     12.80915148	      9.19468345	     -3.03058864	      2.16283077	    -16.60918235	     -1.49378340	    -11.31539257	     -3.12258967	     -4.91948135
      1.82366667	     -0.39897097	      7.45090212	     -1.08383830	      1.46277498	      1.01309546	      0.28100722	     24.84717935	     -9.41558893	      1.32565472	    -58.04118478	      6.84245881	     -4.19175015	      9.19261152	     -1.84814984	     12.71679777	      9.45461232	     -2.76392729	      2.17601380	    -16.61649333	     -1.47228233	    -11.35788416	     -3.01622532	     -5.07964583
      1.82783333	     -0.38194970	      7.40761962	     -0.91078182	      1.46718266	      1.01303293	      0.28070552	     25.14872257	     -9.35189964	      1.25870922	    -56.99072198	      7.06708215	     -4.55860772	      8.50807776	     -2.37370813	     12.65230430	      9.87847289	     -2.34623292	      2.04013322	    -16.96093217	     -1.37664558	    -11.40438225	     -2.90851262	     -5.41086129
      1.83200000	     -0.38612779	      7.35423265	     -0.75018900	      1.47156549	      1.01291164	      0.28047064	     25.45823959	     -9.26162448	      1.21290178	    -55.89406903	      7.20073408	     -5.05859523	      8.38594405	     -2.79854421	     12.57164689	     10.05744855	     -2.08571497	      2.11854021	    -16.84394904	     -1.35720501	    -11.44890054	     -2.82901162	     -5.51093844
      1.83616667	     -0.39342241	      7.30317216	     -0.60325928	      1.47601188	      1.01276461	      0.28027049	     25.74941251	     -9.17005433	      1.18357442	    -54.76094392	      7.31139270	     -5.54278959	      8.25511080	     -3.23973671	     12.48809778	     10.25320836	     -1.78310168	      2.17377803	    -16.80464780	     -1.33684753	    -11.47458464	     -2.74324194	     -5.68060417
      1.84033333	     -0.40099196	      7.28003392	     -0.44247390	      1.48042357	      1.01256309	      0.28001814	     26.03661532	     -9.13044145	      1.13126162	    -53.61600282	      7.41299196	     -5.94802219	      7.42421201	     -3.71467454	     12.43348641	     10.62994276	     -1.41057811	      2.10571249	    -17.07087750	     -1.22125137	    -11.49610112	     -2.65931027	     -6.01871809
      1.84450000	     -0.41695526	      7.25211240	     -0.29641818	      1.48486156	      1.01232888	      0.27984167	     26.31347926	     -9.07128846	      1.10104755	    -52.42766120	      7.46770831	     -6.45258124	      7.32520428	     -4.12793249	     12.36823075	     10.76915098	     -1.14214487	      2.20099131	    -16.93093422	     -1.20723960	    -11.52506667	     -2.62273257	     -6.07764400
      1.84866667	     -0.44283120	      7.24754360	     -0.17928699	      1.48931538	      1.01203349	      0.27969831	     26.59491435	     -9.02673730	      1.11213777	    -51.22025980	      7.47689277	     -6.93197741	      7.22019988	     -4.53816198	     12.32752338	     10.92831768	     -0.85612347	      2.29520616	    -16.85501288	     -1.19372334	    -11.51965938	     -2.58562339	     -6.21699463
      1.85283333	     -0.43695477	      7.23393805	     -0.05963803	      1.49376038	      1.01176035	      0.27955151	     26.82288290	     -8.98504070	      1.09741327	    -49.97875911	      7.43958822	     -7.40865930	      7.10041788	     -4.99136956	     12.27317038	     11.09480907	     -0.54803210	      2.38824004	    -16.81204724	     -1.18169376	    -11.56664762	     -2.54120376	     -6.39353119
      1.85700000	     -0.46457393	      7.23267237	      0.04260830	      1.49826577	      1.01141329	      0.27943336	     27.07186793	     -8.95136174	      1.10136505	    -48.70570527	      7.38088991	     -7.84886250	      6.97350713	     -5.41900873	     12.22914578	     11.24540140	     -0.22028667	      2.46311252	    -16.77333391	     -1.17268951	    -11.55835416	     -2.50799337	     -6.55627184
      1.86116667	     -0.48236447	      7.23896796	      0.15749423	      1.50274989	      1.01103878	      0.27929958	     27.29547289	     -8.93595371	      1.09584912	    -47.41215649	      7.32823805	     -8.24338423	      6.85986848	     -5.84051215	     12.19221385	     11.41349340	      0.06882161	      2.56847529	    -16.71458567	     -1.16499862	    -11.56682981	     -2.48528947	     -6.69742666
